<svg width="49" height="49" viewBox="0 0 49 49" fill="none" xmlns="http://www.w3.org/2000/svg">
<rect x="0.5" y="0.5" width="48" height="48" rx="16" fill="#E7EEFE"/>
<rect x="0.5" y="0.5" width="48" height="48" rx="16" stroke="white"/>
<path d="M27.7997 24.4062C28.3095 24.3156 28.7979 24.6285 28.9364 25.1162L28.9588 25.2158L30.4745 33.7412L30.4754 33.75L30.4901 33.8632C30.5143 34.128 30.4679 34.3957 30.3543 34.6377C30.2246 34.9138 30.0137 35.1436 29.7499 35.2968C29.4856 35.4501 29.1803 35.5196 28.8758 35.4951C28.5854 35.4716 28.3089 35.3635 28.079 35.1855L24.5008 32.5L20.9159 35.1855C20.6863 35.3627 20.4106 35.4706 20.1209 35.4941C19.8168 35.5187 19.5119 35.4497 19.2479 35.2968C18.9841 35.1441 18.7734 34.9143 18.6434 34.6386C18.5133 34.3627 18.4702 34.0529 18.5203 33.7519L18.5223 33.7422L20.036 25.2158L20.0594 25.1162C20.1979 24.6287 20.6854 24.3158 21.1952 24.4062C21.7389 24.5028 22.1022 25.0217 22.0057 25.5654L20.7127 32.8388L23.3036 30.8994L23.3045 30.8984L23.4374 30.8076C23.7551 30.6079 24.1234 30.501 24.5008 30.5009C24.8784 30.5009 25.2474 30.6078 25.5653 30.8076L25.6981 30.8984L25.7 30.8994L28.2811 32.8369L26.9901 25.5654L26.9774 25.4638C26.9397 24.9585 27.29 24.4968 27.7997 24.4062Z" fill="#0D59F2"/>
<path d="M29.5 20.5C29.5 17.7386 27.2614 15.5 24.5 15.5C21.7386 15.5 19.5 17.7386 19.5 20.5C19.5 23.2614 21.7386 25.5 24.5 25.5C27.2614 25.5 29.5 23.2614 29.5 20.5ZM31.5 20.5C31.5 24.366 28.366 27.5 24.5 27.5C20.634 27.5 17.5 24.366 17.5 20.5C17.5 16.634 20.634 13.5 24.5 13.5C28.366 13.5 31.5 16.634 31.5 20.5Z" fill="#0D59F2"/>
</svg>
