<svg width="49" height="49" viewBox="0 0 49 49" fill="none" xmlns="http://www.w3.org/2000/svg">
<rect x="0.5" y="0.5" width="48" height="48" rx="16" fill="#F2FCF7"/>
<rect x="0.5" y="0.5" width="48" height="48" rx="16" stroke="white"/>
<path d="M27.793 17.793C28.159 17.4269 28.7381 17.4043 29.1308 17.7246L29.207 17.793L35.207 23.793C35.5975 24.1835 35.5975 24.8165 35.207 25.207L29.207 31.207C28.8165 31.5976 28.1834 31.5976 27.793 31.207C27.4024 30.8165 27.4024 30.1835 27.793 29.793L33.0858 24.5L27.793 19.207L27.7245 19.1309C27.4041 18.7381 27.4268 18.1591 27.793 17.793Z" fill="#27B462"/>
<path d="M19.7929 17.793C20.1834 17.4025 20.8164 17.4025 21.207 17.793C21.5975 18.1835 21.5975 18.8165 21.207 19.2071L15.914 24.5L21.207 29.793L21.2753 29.8692C21.5957 30.262 21.5731 30.841 21.207 31.2071C20.8408 31.5732 20.2618 31.5958 19.8691 31.2754L19.7929 31.2071L13.7929 25.2071C13.4024 24.8166 13.4024 24.1835 13.7929 23.793L19.7929 17.793Z" fill="#27B462"/>
</svg>
