<svg width="49" height="49" viewBox="0 0 49 49" fill="none" xmlns="http://www.w3.org/2000/svg">
<rect x="0.5" y="0.5" width="48" height="48" rx="16" fill="#F1F4FE"/>
<rect x="0.5" y="0.5" width="48" height="48" rx="16" stroke="white"/>
<path d="M20.5 31.5C21.0523 31.5 21.5 31.9477 21.5 32.5C21.5 33.0523 21.0523 33.5 20.5 33.5H18C17.4477 33.5 17 33.0523 17 32.5C17 31.9477 17.4477 31.5 18 31.5H20.5Z" fill="#4A6DF7"/>
<path d="M29.5098 20.5L29.6123 20.5049C30.1165 20.5561 30.5098 20.9822 30.5098 21.5C30.5098 22.0178 30.1165 22.4439 29.6123 22.4951L29.5098 22.5H29.5C28.9477 22.5 28.5 22.0523 28.5 21.5C28.5 20.9477 28.9477 20.5 29.5 20.5H29.5098Z" fill="#4A6DF7"/>
<path d="M33.5 18.5C33.5 17.9477 33.0523 17.5 32.5 17.5L26.5 17.5C25.9477 17.5 25.5 17.9477 25.5 18.5L25.5 30.5C25.5 31.0523 25.9477 31.5 26.5 31.5L32.5 31.5C33.0523 31.5 33.5 31.0523 33.5 30.5V18.5ZM35.5 30.5C35.5 32.1569 34.1569 33.5 32.5 33.5H26.5C24.8431 33.5 23.5 32.1569 23.5 30.5L23.5 18.5C23.5 16.8432 24.8431 15.5 26.5 15.5L32.5 15.5C34.1569 15.5 35.5 16.8432 35.5 18.5V30.5Z" fill="#4A6DF7"/>
<path d="M13.5 26.5L13.5 20.5C13.5 19.7043 13.8163 18.9415 14.3789 18.3789C14.9415 17.8163 15.7043 17.5 16.5 17.5H20.5C21.0523 17.5 21.5 17.9477 21.5 18.5C21.5 19.0523 21.0523 19.5 20.5 19.5H16.5C16.2348 19.5 15.9805 19.6054 15.793 19.793C15.6054 19.9805 15.5 20.2348 15.5 20.5L15.5 26.5L15.5049 26.5986C15.5276 26.8276 15.6288 27.0429 15.793 27.207C15.9805 27.3946 16.2348 27.5 16.5 27.5H20.5C21.0523 27.5 21.5 27.9477 21.5 28.5C21.5 29.0523 21.0523 29.5 20.5 29.5H16.5C15.7043 29.5 14.9415 29.1837 14.3789 28.6211C13.8163 28.0585 13.5 27.2956 13.5 26.5Z" fill="#4A6DF7"/>
<path d="M27.5 27.5C27.5 26.3954 28.3954 25.5 29.5 25.5C30.6046 25.5 31.5 26.3954 31.5 27.5C31.5 28.6046 30.6046 29.5 29.5 29.5C28.3954 29.5 27.5 28.6046 27.5 27.5Z" fill="#4A6DF7"/>
</svg>
