<svg width="49" height="49" viewBox="0 0 49 49" fill="none" xmlns="http://www.w3.org/2000/svg">
<rect x="0.5" y="0.5" width="48" height="48" rx="16" fill="#EBE8FC"/>
<rect x="0.5" y="0.5" width="48" height="48" rx="16" stroke="white"/>
<path d="M22.5 17.5C22.5 16.9477 22.0523 16.5 21.5 16.5H17.5C16.9477 16.5 16.5 16.9477 16.5 17.5V21.5C16.5 22.0523 16.9477 22.5 17.5 22.5H21.5C22.0523 22.5 22.5 22.0523 22.5 21.5V17.5ZM24.5 21.5C24.5 23.1569 23.1569 24.5 21.5 24.5H17.5C15.8432 24.5 14.5 23.1569 14.5 21.5L14.5 17.5C14.5 15.8432 15.8432 14.5 17.5 14.5L21.5 14.5C23.1569 14.5 24.5 15.8432 24.5 17.5V21.5Z" fill="#4C33CC"/>
<path d="M18.5 27.5V23.5C18.5 22.9477 18.9477 22.5 19.5 22.5C20.0523 22.5 20.5 22.9477 20.5 23.5V27.5L20.5049 27.5986C20.5276 27.8276 20.6288 28.0429 20.793 28.207C20.9805 28.3946 21.2348 28.5 21.5 28.5H25.5C26.0523 28.5 26.5 28.9477 26.5 29.5C26.5 30.0523 26.0523 30.5 25.5 30.5H21.5C20.7043 30.5 19.9415 30.1837 19.3789 29.6211C18.8867 29.1289 18.5829 28.4835 18.5146 27.7969L18.5 27.5Z" fill="#4C33CC"/>
<path d="M32.5 27.5C32.5 26.9477 32.0523 26.5 31.5 26.5H27.5C26.9477 26.5 26.5 26.9477 26.5 27.5V31.5C26.5 32.0523 26.9477 32.5 27.5 32.5H31.5C32.0523 32.5 32.5 32.0523 32.5 31.5V27.5ZM34.5 31.5C34.5 33.1569 33.1569 34.5 31.5 34.5H27.5C25.8431 34.5 24.5 33.1569 24.5 31.5V27.5C24.5 25.8431 25.8431 24.5 27.5 24.5H31.5C33.1569 24.5 34.5 25.8431 34.5 27.5V31.5Z" fill="#4C33CC"/>
</svg>
