<svg width="49" height="49" viewBox="0 0 49 49" fill="none" xmlns="http://www.w3.org/2000/svg">
<rect x="0.5" y="0.5" width="48" height="48" rx="16" fill="#FCE8E8"/>
<rect x="0.5" y="0.5" width="48" height="48" rx="16" stroke="white"/>
<path d="M27.5 33.5V31.5C27.5 30.7044 27.1837 29.9415 26.6211 29.3789C26.1289 28.8867 25.4835 28.5829 24.7969 28.5146L24.5 28.5L18.5 28.5C17.7043 28.5 16.9415 28.8163 16.3789 29.3789C15.8163 29.9415 15.5 30.7044 15.5 31.5V33.5C15.5 34.0523 15.0523 34.5 14.5 34.5C13.9477 34.5 13.5 34.0523 13.5 33.5V31.5C13.5 30.1739 14.0272 28.9025 14.9648 27.9648C15.9025 27.0272 17.1739 26.5 18.5 26.5L24.5 26.5L24.748 26.5059C25.9838 26.5672 27.1561 27.0858 28.0352 27.9648C28.9728 28.9025 29.5 30.1739 29.5 31.5V33.5C29.5 34.0523 29.0523 34.5 28.5 34.5C27.9477 34.5 27.5 34.0523 27.5 33.5Z" fill="#CC3333"/>
<path d="M30.4962 19.5008C30.4962 18.8363 30.2758 18.1904 29.8692 17.6649C29.5133 17.2049 29.0322 16.8596 28.4864 16.6688L28.2491 16.5965L28.1515 16.5662C27.6762 16.3901 27.4024 15.879 27.5323 15.3778C27.6623 14.8767 28.1496 14.5636 28.6505 14.6405L28.7511 14.661L28.9503 14.7166C29.9407 15.0176 30.8147 15.6199 31.4503 16.4412C32.1281 17.3172 32.4962 18.3932 32.4962 19.5008C32.4962 20.6084 32.1281 21.6844 31.4503 22.5604C30.7724 23.4363 29.8233 24.0627 28.7511 24.3406C28.2165 24.4792 27.671 24.1583 27.5323 23.6238C27.3937 23.0893 27.7146 22.5437 28.2491 22.4051C28.8924 22.2383 29.4625 21.8624 29.8692 21.3368C30.2759 20.8112 30.4962 20.1653 30.4962 19.5008Z" fill="#CC3333"/>
<path d="M33.4998 33.4996V31.5006L33.4891 31.2526C33.4409 30.6764 33.2273 30.1244 32.8709 29.6647C32.5145 29.2049 32.0332 28.8599 31.4871 28.6696L31.2498 28.5973L31.1521 28.567C30.6767 28.3914 30.4026 27.8808 30.532 27.3795C30.6615 26.8784 31.1483 26.564 31.6492 26.6403L31.7498 26.6617L31.949 26.7174C32.9399 27.0175 33.8156 27.6181 34.4519 28.4391C35.1306 29.3146 35.4989 30.3909 35.4998 31.4987V33.4996C35.4997 34.0519 35.052 34.4996 34.4998 34.4996C33.9476 34.4996 33.4999 34.0519 33.4998 33.4996Z" fill="#CC3333"/>
<path d="M24.5 19.5C24.5 17.8432 23.1569 16.5 21.5 16.5C19.8432 16.5 18.5 17.8432 18.5 19.5C18.5 21.1568 19.8432 22.5 21.5 22.5C23.1569 22.5 24.5 21.1568 24.5 19.5ZM26.5 19.5C26.5 22.2614 24.2614 24.5 21.5 24.5C18.7386 24.5 16.5 22.2614 16.5 19.5C16.5 16.7386 18.7386 14.5 21.5 14.5C24.2614 14.5 26.5 16.7386 26.5 19.5Z" fill="#CC3333"/>
</svg>
