<svg width="49" height="49" viewBox="0 0 49 49" fill="none" xmlns="http://www.w3.org/2000/svg">
<rect x="0.5" y="0.5" width="48" height="48" rx="16" fill="#FCF6E8"/>
<rect x="0.5" y="0.5" width="48" height="48" rx="16" stroke="white"/>
<path d="M29.5 20.5C29.5 19.1739 28.9728 17.9025 28.0352 16.9648C27.1561 16.0858 25.9838 15.5672 24.748 15.5059L24.5 15.5C23.1739 15.5 21.9025 16.0272 20.9648 16.9648C20.0272 17.9025 19.5 19.1739 19.5 20.5L19.5078 20.8066C19.5489 21.5363 19.7719 22.3579 20.707 23.293C21.4159 24.0019 22.1288 24.8995 22.4268 26.0664L22.4805 26.3037L22.4951 26.4053C22.5437 26.9097 22.2039 27.3789 21.6963 27.4805C21.1885 27.582 20.6939 27.2795 20.5449 26.7949L20.5195 26.6963L20.4521 26.4316C20.2903 25.9095 19.9679 25.4295 19.5244 24.9482L19.293 24.707C17.9528 23.3668 17.5856 22.0662 17.5146 20.9609L17.5 20.5C17.5 18.6435 18.237 16.8626 19.5498 15.5498C20.8626 14.237 22.6435 13.5 24.5 13.5L24.8467 13.5088C26.577 13.5945 28.2194 14.319 29.4502 15.5498C30.763 16.8626 31.5 18.6435 31.5 20.5C31.5 22.0309 30.9159 23.5954 29.7061 24.7061L29.707 24.707C28.9731 25.4409 28.6254 25.9714 28.4805 26.6963C28.3721 27.2377 27.8452 27.5888 27.3037 27.4805C26.7623 27.3721 26.4112 26.8452 26.5195 26.3037C26.7746 25.0287 27.4269 24.159 28.293 23.293L28.3311 23.2568C29.0948 22.5695 29.5 21.5528 29.5 20.5Z" fill="#CC9933"/>
<path d="M27.5 29.5C28.0523 29.5 28.5 29.9477 28.5 30.5C28.5 31.0523 28.0523 31.5 27.5 31.5H21.5C20.9477 31.5 20.5 31.0523 20.5 30.5C20.5 29.9477 20.9477 29.5 21.5 29.5H27.5Z" fill="#CC9933"/>
<path d="M26.5 33.5C27.0523 33.5 27.5 33.9477 27.5 34.5C27.5 35.0523 27.0523 35.5 26.5 35.5H22.5C21.9477 35.5 21.5 35.0523 21.5 34.5C21.5 33.9477 21.9477 33.5 22.5 33.5H26.5Z" fill="#CC9933"/>
</svg>
