<svg width="137" height="133" viewBox="0 0 137 133" fill="none" xmlns="http://www.w3.org/2000/svg">
<path d="M69.1926 20.1263L80.7635 1.25293L85.1467 22.9246L102.51 9.12443L99.1745 30.978L120.235 23.9164L109.583 43.3177L131.806 43.85L115.124 58.4555L135.823 66.509L115.124 74.5671L131.806 89.1726L109.583 89.7049L120.235 109.102L99.1745 102.045L102.51 123.894L85.1467 110.098L80.7635 131.765L69.1926 112.896L57.6217 131.765L53.2385 110.098L35.8752 123.894L39.2106 102.045L18.1505 109.102L28.8018 89.7049L6.57957 89.1726L23.2612 74.5671L2.5625 66.509L23.2612 58.4555L6.57957 43.85L28.8018 43.3177L18.1505 23.9164L39.2106 30.978L35.8752 9.12443L53.2385 22.9246L57.6217 1.25293L69.1926 20.1263Z" fill="#BED5F5"/>
</svg>
