<svg width="25" height="25" viewBox="0 0 25 25" fill="none" xmlns="http://www.w3.org/2000/svg">
<g clip-path="url(#clip0_1674_2991)">
<path d="M12.9836 4.04049L15.0877 0.597656L15.8848 4.55095L19.0422 2.03356L18.4357 6.02004L22.2654 4.73188L20.3285 8.27101L24.3695 8.36812L21.3361 11.0324L25.1 12.5015L21.3361 13.9714L24.3695 16.6357L20.3285 16.7329L22.2654 20.2711L18.4357 18.9838L19.0422 22.9695L15.8848 20.4529L15.0877 24.4054L12.9836 20.9634L10.8795 24.4054L10.0824 20.4529L6.92497 22.9695L7.5315 18.9838L3.70181 20.2711L5.63871 16.7329L1.59768 16.6357L4.63116 13.9714L0.867188 12.5015L4.63116 11.0324L1.59768 8.36812L5.63871 8.27101L3.70181 4.73188L7.5315 6.02004L6.92497 2.03356L10.0824 4.55095L10.8795 0.597656L12.9836 4.04049Z" fill="#CD7F32"/>
</g>
<defs>
<clipPath id="clip0_1674_2991">
<rect x="0.5" y="0.5" width="24" height="24" fill="white"/>
</clipPath>
</defs>
</svg>
