<svg width="49" height="47" viewBox="0 0 49 47" fill="none" xmlns="http://www.w3.org/2000/svg">
<g clip-path="url(#clip0_1674_2986)">
<path d="M24.5039 7.29452L28.5503 0.699219L30.0831 8.27239L36.1551 3.44992L34.9887 11.0867L42.3535 8.61899L38.6287 15.3988L46.3999 15.5848L40.5663 20.6887L47.8047 23.503L40.5663 26.3189L46.3999 31.4228L38.6287 31.6088L42.3535 38.387L34.9887 35.9209L36.1551 43.5561L30.0831 38.7352L28.5503 46.3068L24.5039 39.713L20.4575 46.3068L18.9247 38.7352L12.8527 43.5561L14.0191 35.9209L6.65433 38.387L10.3791 31.6088L2.60791 31.4228L8.44153 26.3189L1.20312 23.503L8.44153 20.6887L2.60791 15.5848L10.3791 15.3988L6.65433 8.61899L14.0191 11.0867L12.8527 3.44992L18.9247 8.27239L20.4575 0.699219L24.5039 7.29452Z" fill="#FFD071"/>
</g>
<defs>
<clipPath id="clip0_1674_2986">
<rect x="0.5" y="0.5" width="48" height="46" fill="white"/>
</clipPath>
</defs>
</svg>
