<svg width="122" height="118" viewBox="0 0 122 118" fill="none" xmlns="http://www.w3.org/2000/svg">
<path d="M61.0092 17.9264L71.2011 1.20996L75.0618 20.4049L90.3557 8.18186L87.4178 27.5379L105.968 21.2834L96.5861 38.4673L116.16 38.9388L101.466 51.8751L119.698 59.0082L101.466 66.1454L116.16 79.0817L96.5861 79.5532L105.968 96.7331L87.4178 90.4825L90.3557 109.835L75.0618 97.6156L71.2011 116.806L61.0092 100.094L50.8173 116.806L46.9566 97.6156L31.6627 109.835L34.6006 90.4825L16.0505 96.7331L25.4324 79.5532L5.85862 79.0817L20.552 66.1454L2.32031 59.0082L20.552 51.8751L5.85862 38.9388L25.4324 38.4673L16.0505 21.2834L34.6006 27.5379L31.6627 8.18186L46.9566 20.4049L50.8173 1.20996L61.0092 17.9264Z" fill="#FFD071"/>
</svg>
