<svg width="44" height="44" viewBox="0 0 44 44" fill="none" xmlns="http://www.w3.org/2000/svg">
<path d="M21.5693 0C33.4818 0 43.1395 9.65687 43.1396 21.5693C43.1396 33.4819 33.4819 43.1387 21.5693 43.1387C9.65692 43.1385 0 33.4818 0 21.5693C0.000106103 9.65697 9.65699 0.000164653 21.5693 0ZM21.5693 2.88574C11.2506 2.88591 2.88585 11.2506 2.88574 21.5693C2.88574 31.8881 11.2506 40.2537 21.5693 40.2539C22.4285 40.2539 23.2741 40.1933 24.1025 40.0811C22.8498 39.4891 21.7833 38.7372 20.8848 37.8604C18.8658 35.89 17.8155 33.4153 17.291 31.0859C16.7669 28.7579 16.7488 26.4949 16.8535 24.8359C16.8868 24.3083 16.9337 23.8363 16.9814 23.4365C15.6835 22.9764 14.6016 22.3531 13.709 21.6104C12.2274 20.3774 11.3471 18.8877 10.835 17.4795C10.3262 16.0805 10.1746 14.7479 10.1455 13.7773C10.1309 13.2886 10.1471 12.8813 10.168 12.5898C10.1784 12.4439 10.1896 12.3257 10.1992 12.2402C10.204 12.1976 10.2085 12.1628 10.2119 12.1367C10.2136 12.1237 10.2156 12.1123 10.2168 12.1035C10.2174 12.0994 10.2183 12.0959 10.2188 12.0928C10.219 12.0911 10.2186 12.0892 10.2188 12.0879L10.2197 12.0859L13.3018 12.543V12.5439C13.3007 12.5517 13.2994 12.5673 13.2969 12.5898C13.2917 12.6359 13.2836 12.7118 13.2764 12.8125C13.2619 13.0145 13.2497 13.3156 13.2607 13.6846C13.2831 14.4301 13.4 15.4138 13.7637 16.4141C14.1241 17.4052 14.7205 18.3979 15.7021 19.2148C16.6803 20.0288 18.1239 20.7374 20.2891 21.0371L20.5 21.0674C24.9171 21.7264 27.6569 23.6571 29.2939 25.5273C30.1143 26.4646 30.6408 27.3665 30.9658 28.0469C31.1285 28.3875 31.2416 28.6748 31.3164 28.8857C31.3538 28.9912 31.3815 29.0783 31.4014 29.1436C31.4113 29.1762 31.4197 29.204 31.4258 29.2256C31.4287 29.2361 31.4315 29.2452 31.4336 29.2529C31.4346 29.2568 31.4357 29.2605 31.4365 29.2637C31.4369 29.2653 31.4371 29.2671 31.4375 29.2686L31.4385 29.2705C31.4384 29.2716 31.4167 29.2786 29.9307 29.6641C28.5179 30.0305 28.4283 30.0543 28.4229 30.0566V30.0586C28.4222 30.0562 28.4209 30.053 28.4199 30.0498C28.4131 30.0275 28.3996 29.9861 28.3789 29.9277C28.3371 29.8098 28.2657 29.6239 28.1543 29.3906C27.9309 28.9228 27.5526 28.2695 26.9492 27.5801C25.7823 26.247 23.702 24.6974 20.0371 24.1514C20.0097 24.4176 19.9831 24.7129 19.9629 25.0322C19.8694 26.5129 19.8935 28.4578 20.3311 30.4014C20.7683 32.3433 21.5998 34.2042 23.0605 35.6299C24.464 36.9995 26.5667 38.0806 29.7881 38.3516C35.9861 35.3106 40.2539 28.939 40.2539 21.5693C40.2538 11.2505 31.8882 2.88574 21.5693 2.88574ZM21.71 6.55566C24.0017 6.55567 26.0048 7.78604 27.0977 9.61523L27.2012 9.79492L27.2158 9.82031L27.2295 9.84766L27.2646 9.92383C27.4297 10.3066 27.398 10.68 27.3135 10.9443C27.2321 11.1985 27.0568 11.4957 26.7402 11.709L26.6748 11.751L26.6162 11.7861L22.624 13.6924L21.3809 11.0889L23.6094 10.0244C23.0672 9.6566 22.4133 9.44141 21.71 9.44141C19.381 9.44169 17.5661 11.7939 18.6465 14.3477L18.7002 14.4697H18.7012L18.7559 14.582C19.023 15.101 19.4537 15.5277 19.9805 15.7939L20.0947 15.8486L20.2051 15.8965C22.5024 16.8591 24.6239 15.4813 25.0273 13.5107L27.8535 14.0898C27.0877 17.8293 23.0032 20.3235 18.9102 18.4795C17.6637 17.9186 16.6497 16.921 16.0771 15.6699C13.988 11.1086 17.2974 6.55596 21.71 6.55566Z" fill="url(#paint0_linear_1713_2933)"/>
<defs>
<linearGradient id="paint0_linear_1713_2933" x1="3.89777" y1="17.2155" x2="46.0289" y2="27.2042" gradientUnits="userSpaceOnUse">
<stop stop-color="#C0412C"/>
<stop offset="1" stop-color="#F4C15D"/>
</linearGradient>
</defs>
</svg>
