<svg width="185" height="44" viewBox="0 0 185 44" fill="none" xmlns="http://www.w3.org/2000/svg">
<path d="M183.905 28.8502C182.879 28.8502 182.087 28.558 181.528 27.9735C180.983 27.389 180.71 26.5642 180.71 25.4992V19.966H178.801V18.232H179.19C179.658 18.232 180.028 18.0892 180.301 17.8034C180.574 17.5177 180.71 17.141 180.71 16.6734V15.8162H182.522V18.232H184.879V19.966H182.522V25.4407C182.522 25.7914 182.574 26.0967 182.678 26.3564C182.795 26.6162 182.983 26.824 183.243 26.9799C183.503 27.1228 183.847 27.1942 184.275 27.1942C184.366 27.1942 184.477 27.1877 184.607 27.1747C184.75 27.1617 184.879 27.1487 184.996 27.1357V28.7333C184.827 28.7723 184.639 28.7983 184.431 28.8113C184.224 28.8373 184.048 28.8502 183.905 28.8502Z" fill="#1E1E1E"/>
<path d="M168.535 28.7334V18.2321H170.308V20.2778L170.016 20.1024C170.276 19.44 170.691 18.927 171.263 18.5633C171.847 18.1866 172.529 17.9983 173.308 17.9983C174.062 17.9983 174.731 18.1671 175.315 18.5048C175.913 18.8426 176.38 19.3101 176.718 19.9076C177.069 20.5051 177.244 21.1805 177.244 21.9338V28.7334H175.413V22.5183C175.413 21.9338 175.309 21.4403 175.101 21.0376C174.893 20.635 174.594 20.3233 174.205 20.1024C173.828 19.8687 173.393 19.7518 172.899 19.7518C172.406 19.7518 171.964 19.8687 171.574 20.1024C171.198 20.3233 170.899 20.6415 170.678 21.0571C170.457 21.4598 170.347 21.9468 170.347 22.5183V28.7334H168.535Z" fill="#1E1E1E"/>
<path d="M161.592 28.9672C160.579 28.9672 159.677 28.7269 158.884 28.2463C158.092 27.7657 157.469 27.1098 157.014 26.2785C156.559 25.4343 156.332 24.4926 156.332 23.4535C156.332 22.4014 156.553 21.4663 156.994 20.648C157.449 19.8297 158.06 19.1867 158.826 18.7192C159.605 18.2386 160.475 17.9983 161.437 17.9983C162.216 17.9983 162.904 18.1412 163.502 18.4269C164.112 18.6997 164.625 19.0763 165.041 19.5569C165.47 20.0245 165.794 20.5635 166.015 21.174C166.249 21.7715 166.366 22.3949 166.366 23.0444C166.366 23.1872 166.353 23.3496 166.327 23.5314C166.314 23.7003 166.294 23.8627 166.268 24.0185H157.657V22.4599H165.216L164.359 23.1613C164.476 22.4859 164.411 21.8819 164.164 21.3494C163.917 20.8168 163.554 20.3947 163.073 20.083C162.593 19.7712 162.047 19.6154 161.437 19.6154C160.826 19.6154 160.268 19.7712 159.761 20.083C159.254 20.3947 158.858 20.8428 158.573 21.4273C158.3 21.9988 158.189 22.6807 158.241 23.473C158.189 24.2393 158.306 24.9147 158.592 25.4992C158.891 26.0707 159.306 26.5188 159.839 26.8435C160.384 27.1553 160.975 27.3111 161.612 27.3111C162.313 27.3111 162.904 27.1488 163.385 26.8241C163.865 26.4993 164.255 26.0837 164.554 25.5772L166.073 26.3565C165.866 26.837 165.541 27.2787 165.099 27.6813C164.671 28.071 164.158 28.3827 163.56 28.6165C162.976 28.8503 162.32 28.9672 161.592 28.9672Z" fill="#1E1E1E"/>
<path d="M152.332 28.7334V13.9849H154.144V28.7334H152.332Z" fill="#1E1E1E"/>
<path d="M144.398 28.9672C143.709 28.9672 143.099 28.8438 142.566 28.597C142.047 28.3372 141.637 27.9865 141.339 27.5449C141.04 27.0903 140.891 26.5708 140.891 25.9863C140.891 25.4278 141.008 24.9277 141.241 24.4861C141.488 24.0315 141.865 23.6483 142.371 23.3366C142.891 23.0249 143.54 22.8041 144.32 22.6742L148.216 22.0313V23.5509L144.729 24.1354C144.053 24.2523 143.56 24.4666 143.248 24.7783C142.949 25.0901 142.8 25.4732 142.8 25.9278C142.8 26.3565 142.969 26.7137 143.307 26.9994C143.657 27.2852 144.092 27.428 144.612 27.428C145.274 27.428 145.846 27.2916 146.326 27.0189C146.82 26.7331 147.203 26.35 147.476 25.8694C147.762 25.3888 147.904 24.8563 147.904 24.2718V21.6026C147.904 21.0311 147.69 20.57 147.262 20.2193C146.846 19.8557 146.294 19.6738 145.605 19.6738C145.008 19.6738 144.475 19.8297 144.008 20.1414C143.553 20.4402 143.216 20.8428 142.995 21.3494L141.417 20.5311C141.611 20.0505 141.923 19.6219 142.352 19.2452C142.78 18.8555 143.281 18.5503 143.852 18.3295C144.424 18.1087 145.021 17.9983 145.644 17.9983C146.45 17.9983 147.158 18.1542 147.768 18.4659C148.379 18.7646 148.853 19.1867 149.19 19.7323C149.541 20.2648 149.716 20.8883 149.716 21.6026V28.7334H147.943V26.7461L148.275 26.863C148.054 27.2787 147.755 27.6423 147.378 27.9541C147.002 28.2658 146.56 28.5126 146.054 28.6944C145.547 28.8763 144.995 28.9672 144.398 28.9672Z" fill="#1E1E1E"/>
<path d="M135.244 28.7335V15.9722H131.309V14.2188H141.05V15.9722H137.173V28.7335H135.244Z" fill="#1E1E1E"/>
<path d="M121.261 28.9672C120.273 28.9672 119.384 28.7269 118.591 28.2464C117.812 27.7658 117.195 27.1099 116.74 26.2786C116.286 25.4473 116.059 24.5186 116.059 23.4925C116.059 22.4405 116.286 21.5053 116.74 20.687C117.195 19.8557 117.812 19.1998 118.591 18.7192C119.384 18.2386 120.273 17.9983 121.261 17.9983C122.131 17.9983 122.904 18.1867 123.579 18.5634C124.254 18.927 124.787 19.4206 125.177 20.0441L124.884 20.4922V13.9849H126.716V28.7334H124.943V26.4929L125.177 26.8046C124.813 27.493 124.28 28.0256 123.579 28.4022C122.891 28.7789 122.118 28.9672 121.261 28.9672ZM121.416 27.2138C122.079 27.2138 122.67 27.0514 123.189 26.7267C123.709 26.402 124.118 25.9604 124.417 25.4019C124.728 24.8304 124.884 24.1939 124.884 23.4925C124.884 22.7782 124.728 22.1417 124.417 21.5832C124.118 21.0117 123.709 20.5636 123.189 20.2389C122.67 19.9142 122.079 19.7518 121.416 19.7518C120.767 19.7518 120.176 19.9207 119.643 20.2584C119.124 20.5831 118.715 21.0247 118.416 21.5832C118.117 22.1287 117.968 22.7652 117.968 23.4925C117.968 24.1939 118.117 24.8304 118.416 25.4019C118.715 25.9604 119.124 26.402 119.643 26.7267C120.163 27.0514 120.754 27.2138 121.416 27.2138Z" fill="#1E1E1E"/>
<path d="M109.546 28.9672C108.532 28.9672 107.63 28.7269 106.837 28.2463C106.045 27.7657 105.422 27.1098 104.967 26.2785C104.512 25.4343 104.285 24.4926 104.285 23.4535C104.285 22.4014 104.506 21.4663 104.948 20.648C105.402 19.8297 106.013 19.1867 106.779 18.7192C107.558 18.2386 108.429 17.9983 109.39 17.9983C110.169 17.9983 110.857 18.1412 111.455 18.4269C112.065 18.6997 112.578 19.0763 112.994 19.5569C113.423 20.0245 113.747 20.5635 113.968 21.174C114.202 21.7715 114.319 22.3949 114.319 23.0444C114.319 23.1872 114.306 23.3496 114.28 23.5314C114.267 23.7003 114.247 23.8627 114.221 24.0185H105.61V22.4599H113.169L112.312 23.1613C112.429 22.4859 112.364 21.8819 112.117 21.3494C111.871 20.8168 111.507 20.3947 111.026 20.083C110.546 19.7712 110 19.6154 109.39 19.6154C108.779 19.6154 108.221 19.7712 107.714 20.083C107.208 20.3947 106.811 20.8428 106.526 21.4273C106.253 21.9988 106.143 22.6807 106.194 23.473C106.143 24.2393 106.259 24.9147 106.545 25.4992C106.844 26.0707 107.26 26.5188 107.792 26.8435C108.338 27.1553 108.929 27.3111 109.565 27.3111C110.266 27.3111 110.857 27.1488 111.338 26.8241C111.819 26.4993 112.208 26.0837 112.507 25.5772L114.027 26.3565C113.819 26.837 113.494 27.2787 113.052 27.6813C112.624 28.071 112.111 28.3827 111.513 28.6165C110.929 28.8503 110.273 28.9672 109.546 28.9672Z" fill="#1E1E1E"/>
<path d="M100.285 28.7334V13.9849H102.097V28.7334H100.285Z" fill="#1E1E1E"/>
<path d="M92.8811 28.9672C92.0368 28.9672 91.264 28.7789 90.5626 28.4022C89.8742 28.0256 89.3417 27.493 88.965 26.8046L89.2183 26.4929V28.7334H87.4453V13.9849H89.2572V20.4922L88.9845 20.0441C89.3741 19.4206 89.9067 18.927 90.5821 18.5634C91.2575 18.1867 92.0303 17.9983 92.9005 17.9983C93.8877 17.9983 94.7709 18.2386 95.5502 18.7192C96.3425 19.1998 96.966 19.8557 97.4206 20.687C97.8752 21.5053 98.1025 22.4405 98.1025 23.4925C98.1025 24.5186 97.8752 25.4473 97.4206 26.2786C96.966 27.1099 96.3425 27.7658 95.5502 28.2464C94.7709 28.7269 93.8812 28.9672 92.8811 28.9672ZM92.7447 27.2138C93.4071 27.2138 93.9981 27.0514 94.5176 26.7267C95.0372 26.402 95.4398 25.9604 95.7256 25.4019C96.0243 24.8304 96.1737 24.1939 96.1737 23.4925C96.1737 22.7652 96.0243 22.1287 95.7256 21.5832C95.4398 21.0247 95.0372 20.5831 94.5176 20.2584C93.9981 19.9207 93.4071 19.7518 92.7447 19.7518C92.0823 19.7518 91.4848 19.9142 90.9522 20.2389C90.4327 20.5636 90.0171 21.0117 89.7053 21.5832C89.4066 22.1417 89.2572 22.7782 89.2572 23.4925C89.2572 24.1939 89.4066 24.8304 89.7053 25.4019C90.0171 25.9604 90.4327 26.402 90.9522 26.7267C91.4848 27.0514 92.0823 27.2138 92.7447 27.2138Z" fill="#1E1E1E"/>
<path d="M79.5147 28.9672C78.8263 28.9672 78.2159 28.8438 77.6833 28.597C77.1638 28.3372 76.7547 27.9865 76.4559 27.5449C76.1572 27.0903 76.0078 26.5708 76.0078 25.9863C76.0078 25.4278 76.1247 24.9277 76.3585 24.4861C76.6053 24.0315 76.982 23.6483 77.4885 23.3366C78.0081 23.0249 78.6575 22.8041 79.4368 22.6742L83.3334 22.0313V23.5509L79.8459 24.1354C79.1705 24.2523 78.677 24.4666 78.3652 24.7783C78.0665 25.0901 77.9171 25.4732 77.9171 25.9278C77.9171 26.3565 78.086 26.7137 78.4237 26.9994C78.7744 27.2852 79.2095 27.428 79.7291 27.428C80.3915 27.428 80.963 27.2916 81.4435 27.0189C81.9371 26.7331 82.3203 26.35 82.593 25.8694C82.8788 25.3888 83.0217 24.8563 83.0217 24.2718V21.6026C83.0217 21.0311 82.8074 20.57 82.3787 20.2193C81.9631 19.8557 81.4111 19.6738 80.7227 19.6738C80.1252 19.6738 79.5927 19.8297 79.1251 20.1414C78.6705 20.4402 78.3328 20.8428 78.112 21.3494L76.5339 20.5311C76.7287 20.0505 77.0404 19.6219 77.469 19.2452C77.8977 18.8555 78.3977 18.5503 78.9692 18.3295C79.5407 18.1087 80.1382 17.9983 80.7616 17.9983C81.5669 17.9983 82.2748 18.1542 82.8853 18.4659C83.4957 18.7646 83.9698 19.1867 84.3075 19.7323C84.6582 20.2648 84.8336 20.8883 84.8336 21.6026V28.7334H83.0606V26.7461L83.3918 26.863C83.171 27.2787 82.8723 27.6423 82.4956 27.9541C82.119 28.2658 81.6773 28.5126 81.1708 28.6944C80.6642 28.8763 80.1122 28.9672 79.5147 28.9672Z" fill="#1E1E1E"/>
<path d="M65.3281 28.7334V18.2321H67.1011V20.2778L66.8088 20.1024C67.0686 19.44 67.4842 18.927 68.0557 18.5633C68.6402 18.1866 69.3221 17.9983 70.1014 17.9983C70.8548 17.9983 71.5237 18.1671 72.1082 18.5048C72.7057 18.8426 73.1733 19.3101 73.511 19.9076C73.8616 20.5051 74.037 21.1805 74.037 21.9338V28.7334H72.2056V22.5183C72.2056 21.9338 72.1017 21.4403 71.8939 21.0376C71.6861 20.635 71.3873 20.3233 70.9977 20.1024C70.621 19.8687 70.1859 19.7518 69.6923 19.7518C69.1987 19.7518 68.7571 19.8687 68.3675 20.1024C67.9908 20.3233 67.6921 20.6415 67.4712 21.0571C67.2504 21.4598 67.14 21.9468 67.14 22.5183V28.7334H65.3281Z" fill="#1E1E1E"/>
<path d="M53.9219 28.7335V14.2188H63.3711V15.9722H55.8312V20.5702H62.9814V22.3236H55.8312V26.9801H63.3711V28.7335H53.9219Z" fill="#1E1E1E"/>
<path d="M21.5693 0C33.4818 0 43.1395 9.65687 43.1396 21.5693C43.1396 33.4819 33.4819 43.1387 21.5693 43.1387C9.65692 43.1385 0 33.4818 0 21.5693C0.000106103 9.65697 9.65699 0.000164653 21.5693 0ZM21.5693 2.88574C11.2506 2.88591 2.88585 11.2506 2.88574 21.5693C2.88574 31.8881 11.2506 40.2537 21.5693 40.2539C22.4285 40.2539 23.2741 40.1933 24.1025 40.0811C22.8498 39.4891 21.7833 38.7372 20.8848 37.8604C18.8658 35.89 17.8155 33.4153 17.291 31.0859C16.7669 28.7579 16.7488 26.4949 16.8535 24.8359C16.8868 24.3083 16.9337 23.8363 16.9814 23.4365C15.6835 22.9764 14.6016 22.3531 13.709 21.6104C12.2274 20.3774 11.3471 18.8877 10.835 17.4795C10.3262 16.0805 10.1746 14.7479 10.1455 13.7773C10.1309 13.2886 10.1471 12.8813 10.168 12.5898C10.1784 12.4439 10.1896 12.3257 10.1992 12.2402C10.204 12.1976 10.2085 12.1628 10.2119 12.1367C10.2136 12.1237 10.2156 12.1123 10.2168 12.1035C10.2174 12.0994 10.2183 12.0959 10.2188 12.0928C10.219 12.0911 10.2185 12.0892 10.2188 12.0879L10.2197 12.0859L13.3018 12.543V12.5439C13.3007 12.5517 13.2994 12.5673 13.2969 12.5898C13.2917 12.6359 13.2836 12.7118 13.2764 12.8125C13.2619 13.0145 13.2497 13.3156 13.2607 13.6846C13.2831 14.4301 13.4 15.4138 13.7637 16.4141C14.1241 17.4052 14.7205 18.3979 15.7021 19.2148C16.6803 20.0288 18.1239 20.7374 20.2891 21.0371L20.5 21.0674C24.9171 21.7264 27.6569 23.6571 29.2939 25.5273C30.1143 26.4646 30.6408 27.3665 30.9658 28.0469C31.1285 28.3875 31.2416 28.6748 31.3164 28.8857C31.3538 28.9912 31.3815 29.0783 31.4014 29.1436C31.4113 29.1762 31.4197 29.204 31.4258 29.2256C31.4287 29.2361 31.4315 29.2452 31.4336 29.2529C31.4346 29.2568 31.4357 29.2605 31.4365 29.2637C31.4369 29.2653 31.4371 29.2671 31.4375 29.2686L31.4385 29.2705C31.4384 29.2716 31.4167 29.2786 29.9307 29.6641C28.5179 30.0305 28.4283 30.0543 28.4229 30.0566V30.0586C28.4222 30.0562 28.4209 30.053 28.4199 30.0498C28.4131 30.0275 28.3996 29.9861 28.3789 29.9277C28.3371 29.8098 28.2657 29.6239 28.1543 29.3906C27.9309 28.9228 27.5526 28.2695 26.9492 27.5801C25.7823 26.247 23.702 24.6974 20.0371 24.1514C20.0097 24.4176 19.9831 24.7129 19.9629 25.0322C19.8694 26.5129 19.8935 28.4578 20.3311 30.4014C20.7683 32.3433 21.5998 34.2042 23.0605 35.6299C24.464 36.9995 26.5667 38.0806 29.7881 38.3516C35.9861 35.3106 40.2539 28.939 40.2539 21.5693C40.2538 11.2505 31.8882 2.88574 21.5693 2.88574ZM21.71 6.55566C24.0017 6.55567 26.0048 7.78604 27.0977 9.61523L27.2012 9.79492L27.2158 9.82031L27.2295 9.84766L27.2646 9.92383C27.4297 10.3066 27.398 10.68 27.3135 10.9443C27.2321 11.1985 27.0568 11.4957 26.7402 11.709L26.6748 11.751L26.6162 11.7861L22.624 13.6924L21.3809 11.0889L23.6094 10.0244C23.0672 9.6566 22.4133 9.44141 21.71 9.44141C19.381 9.44169 17.5661 11.7939 18.6465 14.3477L18.7002 14.4697H18.7012L18.7559 14.582C19.023 15.101 19.4537 15.5277 19.9805 15.7939L20.0947 15.8486L20.2051 15.8965C22.5024 16.8591 24.6239 15.4813 25.0273 13.5107L27.8535 14.0898C27.0877 17.8293 23.0032 20.3235 18.9102 18.4795C17.6637 17.9186 16.6497 16.921 16.0771 15.6699C13.988 11.1086 17.2974 6.55596 21.71 6.55566Z" fill="url(#paint0_linear_1674_2943)"/>
<defs>
<linearGradient id="paint0_linear_1674_2943" x1="3.89777" y1="17.2155" x2="46.0289" y2="27.2042" gradientUnits="userSpaceOnUse">
<stop stop-color="#C0412C"/>
<stop offset="1" stop-color="#F4C15D"/>
</linearGradient>
</defs>
</svg>
