<svg width="131" height="131" viewBox="0 0 131 131" fill="none" xmlns="http://www.w3.org/2000/svg">
<g filter="url(#filter0_dd_1674_3029)">
<rect x="35.5" y="18.5" width="60" height="60" rx="10" fill="#E8618C"/>
<path d="M72.3516 44.209H74.9316" stroke="white" stroke-width="2.064" stroke-miterlimit="10"/>
<path d="M56.0547 44.209H65.8587" stroke="white" stroke-width="2.064" stroke-miterlimit="10"/>
<path d="M72.6371 40.7596H74.9591V57.9596H56.0391L56.0391 40.7596H69.2831" stroke="white" stroke-width="2.064" stroke-miterlimit="10"/>
<path d="M60.3594 40.7793V44.2193" stroke="white" stroke-width="2.064" stroke-miterlimit="10" stroke-linecap="square"/>
<path d="M65.9973 47.4808L64.2773 45.7608L70.6413 39.3968C71.1573 38.8808 71.8453 38.8808 72.3613 39.3968C72.8773 39.9128 72.8773 40.6008 72.3613 41.1168L65.9973 47.4808Z" stroke="white" stroke-width="2.064" stroke-miterlimit="10" stroke-linecap="round"/>
<path d="M61.039 48.3226C61.727 47.6346 62.759 47.6346 63.447 48.3226C64.135 49.0106 64.135 50.0426 63.447 50.7306C62.759 51.4186 60.437 51.3326 60.437 51.3326C60.437 51.3326 60.351 48.9246 61.039 48.3226Z" stroke="white" stroke-width="2.064" stroke-miterlimit="10" stroke-linecap="round"/>
</g>
<defs>
<filter id="filter0_dd_1674_3029" x="0.5" y="0.5" width="130" height="130" filterUnits="userSpaceOnUse" color-interpolation-filters="sRGB">
<feFlood flood-opacity="0" result="BackgroundImageFix"/>
<feColorMatrix in="SourceAlpha" type="matrix" values="0 0 0 0 0 0 0 0 0 0 0 0 0 0 0 0 0 0 127 0" result="hardAlpha"/>
<feOffset dy="17"/>
<feGaussianBlur stdDeviation="17.5"/>
<feColorMatrix type="matrix" values="0 0 0 0 0.909804 0 0 0 0 0.380392 0 0 0 0 0.54902 0 0 0 0.24 0"/>
<feBlend mode="normal" in2="BackgroundImageFix" result="effect1_dropShadow_1674_3029"/>
<feColorMatrix in="SourceAlpha" type="matrix" values="0 0 0 0 0 0 0 0 0 0 0 0 0 0 0 0 0 0 127 0" result="hardAlpha"/>
<feOffset/>
<feGaussianBlur stdDeviation="1"/>
<feColorMatrix type="matrix" values="0 0 0 0 0.909804 0 0 0 0 0.380392 0 0 0 0 0.54902 0 0 0 0.12 0"/>
<feBlend mode="normal" in2="effect1_dropShadow_1674_3029" result="effect2_dropShadow_1674_3029"/>
<feBlend mode="normal" in="SourceGraphic" in2="effect2_dropShadow_1674_3029" result="shape"/>
</filter>
</defs>
</svg>
