<svg width="131" height="131" viewBox="0 0 131 131" fill="none" xmlns="http://www.w3.org/2000/svg">
<g filter="url(#filter0_dd_1674_3063)">
<rect x="35.5" y="18.5" width="60" height="60" rx="10" fill="#FF8800"/>
<path d="M65.4945 43.3443C68.5905 40.2483 74.0945 39.9043 74.0945 39.9043C74.0945 39.9043 73.7505 45.4083 70.6545 48.5043C68.8606 50.3146 66.2092 50.9777 63.7745 50.2243C63.0212 47.7896 63.6842 45.1383 65.4945 43.3443Z" stroke="white" stroke-width="2.064" stroke-miterlimit="10" stroke-linecap="round"/>
<path d="M68.0792 45.9199L61.1992 52.7999" stroke="white" stroke-width="2.064" stroke-miterlimit="10" stroke-linecap="square"/>
<path d="M73.2384 51.0798V55.3798C73.2384 56.3301 72.4687 57.0998 71.5184 57.0998H58.6184C57.6681 57.0998 56.8984 56.3301 56.8984 55.3798L56.8984 42.4798C56.8984 41.5295 57.6681 40.7598 58.6184 40.7598H62.9184" stroke="white" stroke-width="2.064" stroke-miterlimit="10" stroke-linecap="round"/>
</g>
<defs>
<filter id="filter0_dd_1674_3063" x="0.5" y="0.5" width="130" height="130" filterUnits="userSpaceOnUse" color-interpolation-filters="sRGB">
<feFlood flood-opacity="0" result="BackgroundImageFix"/>
<feColorMatrix in="SourceAlpha" type="matrix" values="0 0 0 0 0 0 0 0 0 0 0 0 0 0 0 0 0 0 127 0" result="hardAlpha"/>
<feOffset dy="17"/>
<feGaussianBlur stdDeviation="17.5"/>
<feColorMatrix type="matrix" values="0 0 0 0 1 0 0 0 0 0.533333 0 0 0 0 0 0 0 0 0.24 0"/>
<feBlend mode="normal" in2="BackgroundImageFix" result="effect1_dropShadow_1674_3063"/>
<feColorMatrix in="SourceAlpha" type="matrix" values="0 0 0 0 0 0 0 0 0 0 0 0 0 0 0 0 0 0 127 0" result="hardAlpha"/>
<feOffset/>
<feGaussianBlur stdDeviation="1"/>
<feColorMatrix type="matrix" values="0 0 0 0 1 0 0 0 0 0.533333 0 0 0 0 0 0 0 0 0.12 0"/>
<feBlend mode="normal" in2="effect1_dropShadow_1674_3063" result="effect2_dropShadow_1674_3063"/>
<feBlend mode="normal" in="SourceGraphic" in2="effect2_dropShadow_1674_3063" result="shape"/>
</filter>
</defs>
</svg>
